<svg xmlns="http://www.w3.org/2000/svg" width="205.964" height="36.936" viewBox="0 0 205.964 36.936">
  <g id="Group_2852" data-name="Group 2852" transform="translate(-381.779 -437.064)">
    <g id="Group_2850" data-name="Group 2850" transform="translate(381.779 437.064)">
      <g id="Group_2849" data-name="Group 2849" transform="translate(0 0)">
        <g id="Group_2848" data-name="Group 2848">
          <path id="Path_43" data-name="Path 43" d="M381.779,469.971V447.647a6.4,6.4,0,0,1,6.6-6.6h7.864c10.4,0,18.722,6.85,18.722,17.758s-8.321,17.758-18.722,17.758h-7.864A6.4,6.4,0,0,1,381.779,469.971Zm14.815-4.769c3.805,0,6.6-2.436,6.6-6.393s-2.79-6.393-6.6-6.393H393.55V465.2Z" transform="translate(-381.779 -440.341)" fill="#ff6e0c"/>
          <path id="Path_44" data-name="Path 44" d="M585.133,458.779V443.051a5.886,5.886,0,1,1,11.771,0v15.322a3.76,3.76,0,1,0,7.509,0V443.051a5.886,5.886,0,1,1,11.771,0v15.728c0,8.777-6.19,15.221-15.525,15.221S585.133,467.556,585.133,458.779Z" transform="translate(-548.907 -437.064)" fill="#ff6e0c"/>
          <path id="Path_45" data-name="Path 45" d="M782.222,467.354V442.594a5.454,5.454,0,0,1,5.682-5.53,6.433,6.433,0,0,1,5.479,2.943l6.8,9.133a55.308,55.308,0,0,1,3.653,5.378V443.66c0-3.856,2.029-6.6,5.885-6.6s5.885,2.74,5.885,6.6v24.81a5.441,5.441,0,0,1-5.632,5.53,6.52,6.52,0,0,1-5.53-2.943l-7.2-9.132c-1.065-1.37-2.283-3.2-3.247-4.719v10.147c0,3.907-2.029,6.646-5.885,6.646S782.222,471.26,782.222,467.354Z" transform="translate(-710.887 -437.064)" fill="#ff6e0c"/>
          <path id="Path_46" data-name="Path 46" d="M1011.39,471.362l-4.668-5.683c-1.116-1.37-1.573-1.928-2.537-3.247v5.581a5.886,5.886,0,1,1-11.771,0V443.051a5.886,5.886,0,1,1,11.771,0v5.378c.913-1.319,1.421-1.979,2.537-3.4l4.059-5.175c5.378-6.849,14.916,1.167,9.132,7.915l-6.494,7.611,7,7.915C1025.952,469.535,1017.022,478.262,1011.39,471.362Z" transform="translate(-883.635 -437.064)" fill="#ff6e0c"/>
          <path id="Path_47" data-name="Path 47" d="M1180.1,468.013V443.051a5.886,5.886,0,1,1,11.771,0v24.962a5.886,5.886,0,1,1-11.771,0Z" transform="translate(-1037.889 -437.064)" fill="#ff6e0c"/>
          <path id="Path_48" data-name="Path 48" d="M1268.962,467.354V442.594a5.454,5.454,0,0,1,5.682-5.53,6.433,6.433,0,0,1,5.479,2.943l6.8,9.133a55.275,55.275,0,0,1,3.653,5.378V443.66c0-3.856,2.029-6.6,5.885-6.6s5.885,2.74,5.885,6.6v24.81a5.441,5.441,0,0,1-5.632,5.53,6.521,6.521,0,0,1-5.53-2.943l-7.2-9.132c-1.065-1.37-2.283-3.2-3.247-4.719v10.147c0,3.907-2.029,6.646-5.885,6.646S1268.962,471.26,1268.962,467.354Z" transform="translate(-1110.918 -437.064)" fill="#ff6e0c"/>
        </g>
      </g>
      <path id="Path_49" data-name="Path 49" d="M1482.667,437.212a5.236,5.236,0,0,1,4.614,4.228,13.212,13.212,0,0,1-.72,5.4c-.6,2.117-1.217,4.066-2.566,5.247a4.305,4.305,0,0,1-3.416,1.016l-.05-.007a4.305,4.305,0,0,1-3.032-1.874c-.994-1.493-1.078-3.535-1.106-5.736a13.209,13.209,0,0,1,.718-5.405,5.236,5.236,0,0,1,5.558-2.875" transform="translate(-1281.393 -437.143)" fill="#f20c90"/>
    </g>
    <g id="Group_2851" data-name="Group 2851" transform="translate(575.219 469.19)">
      <path id="Path_50" data-name="Path 50" d="M1472.233,619.632a2.289,2.289,0,1,1-2.288-2.227A2.256,2.256,0,0,1,1472.233,619.632Zm-.673,0a1.615,1.615,0,1,0-1.615,1.615A1.613,1.613,0,0,0,1471.56,619.632Zm-.777.557a.408.408,0,0,1,.1.239.315.315,0,0,1-.33.33.33.33,0,0,1-.269-.141l-.44-.593h-.086v.4a.323.323,0,0,1-.33.336.32.32,0,0,1-.33-.336v-1.578a.325.325,0,0,1,.337-.336h.661a.767.767,0,0,1,.465,1.37Zm-1.028-.7h.189a.221.221,0,1,0,0-.44h-.189Z" transform="translate(-1467.657 -617.405)" fill="#ff6e0c"/>
    </g>
  </g>
</svg>
