<svg width="153" height="60" viewBox="0 0 153 60" fill="none" xmlns="http://www.w3.org/2000/svg">
<g clip-path="url(#clip0_25719_8994)">
<path d="M65.7527 16.8328L69.6973 21.0445C69.6973 21.0445 36.3809 36.6236 0 17.189C0 17.189 4.0755 16.969 24.5577 4.62203C39.7125 -4.51379 62.6673 3.65816 56.4545 21.1283C56.3393 21.4531 56.2136 21.7779 56.0774 22.1079C55.9359 22.1812 58.9794 21.7098 65.7475 16.8276" fill="#91C63D"/>
<path d="M56.8369 29.1693C38.2562 31.9351 23.5153 28.944 13.5466 25.3609C3.99692 21.9297 0 19.7872 0 19.7872C0 19.7872 11.5403 45.4608 34.7412 48.0066C45.9672 49.2377 57.1303 43.2449 57.3451 33.1767C57.2717 30.8351 56.8369 29.164 56.8369 29.164" fill="#008045"/>
<g clip-path="url(#clip1_25719_8994)">
<path d="M99.0164 30.2927H98.1823C97.7057 30.2927 97.1576 30.6233 96.681 31.1428C96.0137 31.8985 95.7754 32.3944 95.7754 33.5751V41.8639C95.7754 44.7685 97.3959 46.3743 100.351 46.3743C102.091 46.3743 103.092 45.595 103.092 44.249V43.0446H102.734C102.305 43.328 101.614 43.4461 100.685 43.4461C99.5169 43.4461 98.9926 42.8321 98.9926 41.486V36.7395H101.185C102.424 36.7395 103.092 35.9366 103.092 35.2045V33.8585H98.9926V30.269L99.0164 30.2927Z" fill="#E7242A"/>
<path d="M129.831 32.418C130.855 32.418 131.713 31.5679 131.713 30.5525C131.713 29.537 130.855 28.6869 129.831 28.6869C128.806 28.6869 127.972 29.5134 127.972 30.5525C127.972 31.5915 128.806 32.418 129.831 32.418Z" fill="#E7242A"/>
<path d="M131.475 42.289V36.1964C131.475 34.685 130.665 33.8585 129.211 33.8585H128.21V42.5487C128.21 45.0047 129.521 46.3507 131.904 46.3507C133.238 46.3507 133.81 45.784 133.81 44.4379V43.6586H133.095C131.856 43.6586 131.451 43.328 131.451 42.2654L131.475 42.289Z" fill="#E7242A"/>
<path d="M147.037 33.8585C145.678 33.8585 144.391 34.5197 143.629 35.5824C142.699 34.4725 141.46 33.8585 140.054 33.8585C136.599 33.8585 134.645 35.8658 134.645 39.3371V44.0837C134.645 45.4534 135.55 46.3743 136.932 46.3743H137.886V39.1246C137.886 37.7077 138.601 36.7868 139.721 36.7868C141.055 36.7868 141.746 37.6841 141.746 39.3844V44.1073C141.746 45.5478 142.604 46.398 144.058 46.398H145.011V39.0774C145.011 37.6369 145.678 36.8104 146.846 36.8104C148.157 36.8104 148.848 37.7077 148.848 39.408V44.1309C148.848 45.6659 149.634 46.4216 151.231 46.4216H152.113V39.0302C152.113 35.9366 150.135 33.9294 147.037 33.9294V33.8585Z" fill="#E7242A"/>
<path d="M124.326 34.5906C123.73 34.2364 123.039 34.0002 122.324 33.9294C121.228 33.7877 120.155 34.0002 119.25 34.4489C118.32 34.9212 117.534 35.6296 117.009 36.527C116.652 37.1174 116.414 38.0619 116.318 38.7704H118.439C118.987 38.7704 119.44 38.4162 119.631 37.9203C119.822 37.3535 120.393 36.7631 121.943 36.9993C122.395 37.0701 122.8 37.2354 123.11 37.5188C123.42 37.8022 123.658 38.18 123.778 38.5815L123.849 38.9593L123.611 38.9121H122.705C117.462 38.9121 116.366 40.9193 116.366 42.6196C116.366 44.8158 118.487 46.3507 121.514 46.3507H122.133C124.993 46.3507 126.995 44.6268 126.995 42.1473V39.5497C126.995 38.5342 126.876 37.6133 126.447 36.7631C125.994 35.8422 125.279 35.0865 124.373 34.567L124.326 34.5906ZM123.587 42.1945C123.587 43.2808 123.015 43.7767 121.776 43.7767C120.536 43.7767 119.798 43.328 119.798 42.5251C119.798 41.7222 120.274 41.2499 122.657 41.2499H123.587V42.1945Z" fill="#E7242A"/>
<path d="M109.907 33.8585C109.216 33.8585 108.549 34.0001 107.953 34.2363V32.418C107.953 31.1428 107.119 30.3871 105.713 30.3871H104.641V44.2253V44.4615C104.641 45.5005 105.475 46.327 106.523 46.327H107.953V39.0537C107.953 38.5106 108.168 38.0383 108.525 37.684C108.883 37.3298 109.359 37.1173 109.907 37.1173C110.455 37.1173 110.932 37.3298 111.29 37.684C111.647 38.0383 111.861 38.5106 111.861 39.0537V44.4615C111.861 45.5005 112.696 46.327 113.744 46.327H115.174V39.0537C115.174 37.6132 114.578 36.2908 113.625 35.3698C112.672 34.4252 111.337 33.8348 109.907 33.8348V33.8585Z" fill="#E7242A"/>
<path d="M90.223 30.9067C88.8646 29.9857 87.2203 29.4662 85.4568 29.4662C84.289 29.4662 83.1451 29.7023 82.1204 30.1274C80.5952 30.765 79.2845 31.8513 78.3551 33.1973C77.4257 34.5434 76.9014 36.1728 76.9014 37.9203C76.9014 39.0774 77.1397 40.1873 77.5686 41.2263C78.2121 42.7377 79.3083 44.0365 80.6667 44.9338C82.0251 45.8548 83.6933 46.3743 85.4329 46.3743C86.6007 46.3743 87.7207 46.1382 88.7455 45.7131C90.2707 45.0755 91.5814 43.9893 92.5108 42.6432C93.4402 41.2972 93.9645 39.6441 93.9645 37.9203C93.9645 36.7631 93.7262 35.6296 93.2972 34.6142C92.6538 33.1029 91.5576 31.804 90.1992 30.8831L90.223 30.9067ZM90.1992 39.9039C89.8179 40.8249 89.1506 41.6042 88.3165 42.1709C87.4824 42.7141 86.5053 43.0447 85.4329 43.0447C84.718 43.0447 84.0269 42.903 83.4073 42.6432C82.4779 42.2654 81.6914 41.6042 81.1195 40.7776C80.5714 39.9511 80.2377 38.9829 80.2377 37.9203C80.2377 37.2118 80.3807 36.527 80.6429 35.9366C81.0242 35.0157 81.6914 34.2364 82.5255 33.6696C83.3596 33.1029 84.3367 32.7959 85.4091 32.7959C86.124 32.7959 86.7913 32.9376 87.4109 33.1973C88.3403 33.5752 89.1268 34.2364 89.6987 35.0629C90.2468 35.8894 90.5805 36.8576 90.5805 37.9203C90.5805 38.6287 90.4375 39.3135 90.1753 39.9039H90.1992Z" fill="#E7242A"/>
<path d="M149.062 5.04846H148.681V21.5079C148.681 23.3735 150.206 24.8848 152.089 24.8848V8.04753C152.089 6.3945 150.73 5.04846 149.062 5.04846Z" fill="#E7242A"/>
<path d="M138.767 24.9321C139.577 24.9321 140.34 24.7668 141.031 24.4834C142.079 24.0347 142.961 23.3027 143.605 22.3817C144.224 21.4607 144.605 20.3272 144.605 19.1465V5.04846H144.224C142.556 5.04846 141.198 6.3945 141.198 8.04753V19.1465C141.198 19.4771 141.126 19.8077 141.007 20.0911C140.816 20.5161 140.507 20.894 140.125 21.1537C139.744 21.4135 139.267 21.5552 138.767 21.5552C138.433 21.5552 138.1 21.4843 137.814 21.3662C137.385 21.1773 137.003 20.8703 136.741 20.4925C136.479 20.1147 136.336 19.6424 136.336 19.1465V16.1238H128.067V12.5107C128.067 12.1801 128.138 11.8495 128.257 11.5661C128.448 11.1411 128.758 10.7632 129.139 10.5035C129.52 10.2437 129.997 10.102 130.497 10.102C130.926 10.102 131.332 10.2201 131.689 10.409C132.046 10.5979 132.38 10.8813 132.571 11.2355C132.666 11.3772 132.714 11.5897 132.738 11.7787C132.857 12.7469 133.643 13.5262 134.644 13.5262H136.36V12.5107C136.36 11.7078 136.193 10.9521 135.907 10.2673C135.454 9.22827 134.716 8.35453 133.786 7.71693C132.857 7.10294 131.713 6.72511 130.521 6.72511C129.711 6.72511 128.948 6.89041 128.257 7.17379C127.209 7.62247 126.327 8.35453 125.684 9.2755C125.064 10.1965 124.683 11.3064 124.683 12.5107V16.1238H119.797V6.72511H119.416C117.748 6.72511 116.389 8.07115 116.389 9.72418V19.1465C116.389 19.4771 116.318 19.8077 116.199 20.0911C116.008 20.5161 115.698 20.894 115.317 21.1537C114.936 21.4135 114.459 21.5552 113.959 21.5552C113.625 21.5552 113.291 21.4843 113.005 21.3662C112.576 21.1773 112.195 20.8703 111.933 20.4925C111.671 20.1147 111.528 19.6424 111.528 19.1465V16.1238H105.713V6.72511H105.332C103.663 6.72511 102.305 8.07115 102.305 9.72418V16.1238H93.9165C94.1072 15.4626 94.2263 14.7541 94.2263 14.0457C94.2263 13.0302 94.0118 12.062 93.6544 11.1883C93.1063 9.86587 92.153 8.75598 90.9853 7.97669C89.8176 7.17379 88.3877 6.72511 86.8625 6.72511C85.8377 6.72511 84.8607 6.93764 83.9789 7.29186C82.6444 7.835 81.5243 8.77959 80.7379 9.93671C80.0229 10.9758 79.594 12.2273 79.5225 13.5498H79.4748V20.7287C79.4748 21.1301 79.3318 21.4843 79.0935 21.7913L78.6407 22.1692C78.4024 22.3108 77.2585 22.3817 76.9487 22.3817C76.901 23.7986 78.0449 24.9321 79.451 24.9321C81.3098 24.9321 82.8112 23.4443 82.8112 21.5788V20.1855C83.9551 20.9176 85.3373 21.3426 86.791 21.3426C87.8157 21.3426 88.7928 21.1301 89.6746 20.7759C90.4133 20.4689 91.1044 20.0202 91.7002 19.5007H108.144C108.191 20.1619 108.311 20.8231 108.573 21.3899C109.025 22.4289 109.764 23.3027 110.694 23.9403C111.623 24.5542 112.743 24.9321 113.959 24.9321C114.769 24.9321 115.531 24.7668 116.223 24.4834C117.271 24.0347 118.153 23.3027 118.796 22.3817C119.368 21.5552 119.702 20.5633 119.773 19.5007H133C133.047 20.1619 133.167 20.8231 133.429 21.3899C133.881 22.4289 134.62 23.3027 135.55 23.9403C136.479 24.5542 137.623 24.9321 138.814 24.9321H138.767ZM89.0311 17.3045C88.3877 17.7296 87.6489 17.9657 86.8148 17.9893C86.2667 17.9893 85.7424 17.8713 85.2658 17.6824C84.5509 17.3754 83.9551 16.8794 83.5261 16.2655C83.0972 15.6279 82.8588 14.8958 82.8588 14.0693C82.8588 13.5262 82.978 13.0066 83.1686 12.5343C83.4785 11.8259 83.9789 11.2355 84.5985 10.8105C85.242 10.3854 86.0046 10.1492 86.8148 10.1256C87.3629 10.1256 87.8872 10.2437 88.3638 10.4326C89.0788 10.7396 89.6746 11.2355 90.1035 11.8495C90.5325 12.4871 90.7708 13.2192 90.7708 14.0457C90.7708 14.5888 90.6516 15.1083 90.461 15.5806C90.175 16.2891 89.6507 16.8794 89.0073 17.3045H89.0311Z" fill="#E7242A"/>
<path d="M111.051 4.52899C112.076 4.52899 112.91 3.70248 112.91 2.68704C112.91 1.67161 112.076 0.845093 111.051 0.845093C110.026 0.845093 109.192 1.67161 109.192 2.68704C109.192 3.70248 110.026 4.52899 111.051 4.52899Z" fill="#E7242A"/>
<path d="M108.597 8.4018C109.622 8.4018 110.456 7.57528 110.456 6.55985C110.456 5.54441 109.622 4.7179 108.597 4.7179C107.572 4.7179 106.738 5.54441 106.738 6.55985C106.738 7.57528 107.572 8.4018 108.597 8.4018Z" fill="#E7242A"/>
<path d="M113.482 8.4018C114.508 8.4018 115.341 7.57713 115.341 6.55985C115.341 5.54256 114.508 4.7179 113.482 4.7179C112.455 4.7179 111.623 5.54256 111.623 6.55985C111.623 7.57713 112.455 8.4018 113.482 8.4018Z" fill="#E7242A"/>
<path d="M99.7792 23.0902C99.7792 22.0748 98.9451 21.2483 97.9204 21.2483C96.8956 21.2483 96.0615 22.0748 96.0615 23.0902C96.0615 24.1057 96.8956 24.9322 97.9204 24.9322C98.9451 24.9322 99.7792 24.1057 99.7792 23.0902Z" fill="#E7242A"/>
<path d="M102.782 21.2719C101.757 21.2719 100.923 22.0984 100.923 23.1138C100.923 24.1292 101.757 24.9558 102.782 24.9558C103.806 24.9558 104.641 24.1292 104.641 23.1138C104.641 22.0984 103.806 21.2719 102.782 21.2719Z" fill="#E7242A"/>
<path d="M138.529 52.3961C137.194 52.3961 136.122 53.4588 136.122 54.7812C136.122 56.1036 137.194 57.1663 138.529 57.1663C139.864 57.1663 140.936 56.1036 140.936 54.7812C140.936 53.4588 139.864 52.3961 138.529 52.3961ZM139.792 56.0564C139.458 56.387 139.029 56.5759 138.529 56.5759C138.029 56.5759 137.6 56.387 137.266 56.0564C136.932 55.7258 136.742 55.3007 136.742 54.8048C136.742 54.3089 136.932 53.8838 137.266 53.5532C137.6 53.2226 138.029 53.0337 138.529 53.0337C139.029 53.0337 139.458 53.2226 139.792 53.5532C140.102 53.8838 140.316 54.3089 140.316 54.8048C140.316 55.3007 140.126 55.7258 139.792 56.0564Z" fill="#028145"/>
<path d="M138.529 57.4733C137.051 57.4733 135.836 56.2689 135.836 54.8048C135.836 53.3407 137.051 52.1364 138.529 52.1364C140.006 52.1364 141.222 53.3407 141.222 54.8048C141.222 56.2689 140.006 57.4733 138.529 57.4733ZM138.529 52.6795C137.361 52.6795 136.408 53.6241 136.408 54.7812C136.408 55.9383 137.361 56.8829 138.529 56.8829C139.697 56.8829 140.65 55.9383 140.65 54.7812C140.65 53.6241 139.697 52.6795 138.529 52.6795ZM138.529 56.8593C137.981 56.8593 137.456 56.6468 137.051 56.2689C136.67 55.8911 136.456 55.3716 136.456 54.8284C136.456 54.2853 136.67 53.7658 137.051 53.3643C137.838 52.585 139.196 52.585 139.983 53.3643C140.364 53.7658 140.578 54.2617 140.578 54.8048C140.578 55.348 140.364 55.8675 139.983 56.2453C139.601 56.6232 139.077 56.8357 138.529 56.8357V56.8593ZM138.529 53.3171C138.124 53.3171 137.742 53.4824 137.456 53.7422C137.17 54.0255 137.027 54.4034 137.027 54.8048C137.027 55.2063 137.194 55.5841 137.456 55.8439C138.028 56.387 139.005 56.4106 139.577 55.8439C139.863 55.5605 140.006 55.1827 140.006 54.7812C140.006 54.3798 139.84 54.0019 139.577 53.7185C139.291 53.4352 138.91 53.2935 138.505 53.2935L138.529 53.3171Z" fill="#028145"/>
<path d="M113.697 52.3961C112.362 52.3961 111.29 53.4588 111.29 54.7812C111.29 56.1036 112.362 57.1663 113.697 57.1663C114.412 57.1663 115.032 56.8593 115.484 56.387V56.8121C115.484 57.2135 115.318 57.5677 115.032 57.8511L113.697 59.1263L114.126 59.575L115.46 58.2998C115.866 57.8984 116.104 57.3788 116.104 56.8121V54.7812C116.104 53.4588 115.032 52.3961 113.697 52.3961ZM114.96 56.0564C114.626 56.387 114.197 56.5759 113.697 56.5759C113.197 56.5759 112.768 56.387 112.434 56.0564C112.1 55.7258 111.91 55.3007 111.91 54.8048C111.91 54.3089 112.1 53.8838 112.434 53.5532C112.768 53.2226 113.197 53.0337 113.697 53.0337C114.197 53.0337 114.626 53.2226 114.96 53.5532C115.27 53.8838 115.484 54.3089 115.484 54.8048C115.484 55.3007 115.294 55.7258 114.96 56.0564Z" fill="#028145"/>
<path d="M114.126 60.0001L113.292 59.1499L114.841 57.6622C115.031 57.4733 115.151 57.2608 115.174 57.0246C114.745 57.308 114.221 57.4733 113.697 57.4733C112.219 57.4733 111.004 56.2689 111.004 54.8048C111.004 53.3407 112.219 52.1364 113.697 52.1364C115.174 52.1364 116.39 53.3407 116.39 54.8048V56.8357C116.39 57.4733 116.128 58.0873 115.675 58.5123L114.126 60.0001ZM114.102 59.1499L114.15 59.1972L115.294 58.1109C115.651 57.7803 115.842 57.308 115.842 56.8357V54.8048C115.842 53.6477 114.888 52.7031 113.721 52.7031C112.553 52.7031 111.6 53.6477 111.6 54.8048C111.6 55.9619 112.553 56.9065 113.721 56.9065C114.316 56.9065 114.888 56.6704 115.294 56.2217L115.794 55.6786V56.8357C115.794 57.308 115.603 57.733 115.27 58.0637L114.126 59.1499H114.102ZM113.697 56.8593C113.149 56.8593 112.624 56.6468 112.219 56.2689C111.838 55.8911 111.624 55.3716 111.624 54.8284C111.624 54.2853 111.838 53.7658 112.219 53.3643C113.006 52.585 114.364 52.585 115.151 53.3643C115.532 53.7658 115.746 54.2617 115.746 54.8048C115.746 55.348 115.532 55.8675 115.151 56.2453C114.769 56.6232 114.245 56.8357 113.697 56.8357V56.8593ZM113.697 53.3171C113.292 53.3171 112.91 53.4824 112.624 53.7422C112.338 54.0255 112.195 54.4034 112.195 54.8048C112.195 55.2063 112.362 55.5841 112.624 55.8439C113.196 56.387 114.173 56.4106 114.745 55.8439C115.031 55.5605 115.174 55.1827 115.174 54.7812C115.174 54.3798 115.008 54.0019 114.745 53.7185C114.459 53.4352 114.078 53.2935 113.673 53.2935L113.697 53.3171Z" fill="#028145"/>
<path d="M136.241 56.3161C136.241 56.3161 136.098 56.4578 136.002 56.4814C135.907 56.5051 135.836 56.5287 135.74 56.5287H134.835C134.477 56.5287 134.215 56.4578 134.001 56.3161C133.786 56.1745 133.691 55.9619 133.691 55.6549V53.5532C133.691 53.5532 133.643 53.4351 133.572 53.4351H133.167C133.167 53.4351 133.047 53.4824 133.047 53.5532V55.5605C133.047 55.7258 133.047 55.8675 133.047 55.9855C133.047 56.1036 133 56.2217 132.976 56.2925C132.928 56.387 132.881 56.4342 132.785 56.4814C132.69 56.5287 132.571 56.5523 132.428 56.5523H131.546C131.212 56.5523 130.926 56.4814 130.712 56.3161C130.497 56.1745 130.402 55.9383 130.402 55.6549V55.466C130.402 55.1118 130.354 54.8048 130.259 54.5686C130.164 54.3089 130.021 54.12 129.854 53.9547C129.687 53.7894 129.473 53.6713 129.211 53.6004C128.972 53.5296 128.686 53.4824 128.376 53.4824H127.018L129.306 50.8139C129.306 50.8139 129.33 50.6958 129.258 50.6486L128.925 50.3888C128.925 50.3888 128.829 50.3652 128.782 50.4125L126.136 53.4824C126.136 53.4824 126.089 53.5296 126.089 53.6004V54.0255C126.089 54.0255 126.136 54.1436 126.208 54.1436H128.186C128.71 54.1436 129.091 54.2617 129.33 54.4742C129.568 54.6867 129.687 55.0173 129.687 55.4424C129.687 55.6549 129.687 55.8202 129.639 55.9619C129.616 56.1272 129.568 56.2453 129.497 56.3161C129.425 56.4106 129.306 56.4814 129.163 56.5051C129.02 56.5523 128.829 56.5759 128.591 56.5759H124.778C124.778 56.5759 124.611 56.5759 124.516 56.5287C124.42 56.5051 124.349 56.4342 124.277 56.3634V56.3161C124.587 55.9147 124.778 55.3952 124.778 54.8284C124.778 53.506 123.706 52.4433 122.371 52.4433C121.036 52.4433 119.964 53.506 119.964 54.8284C119.964 55.1826 120.036 55.5132 120.179 55.8202C120.107 55.8911 120.036 55.9383 119.94 55.9855C119.821 56.0564 119.702 56.1272 119.559 56.1981C119.416 56.2689 119.297 56.3398 119.178 56.4578C119.058 56.5523 118.963 56.694 118.892 56.8357C118.82 56.9773 118.772 57.1899 118.772 57.426V59.5514H119.416V57.6622C119.416 57.4024 119.464 57.2371 119.535 57.119C119.63 57.001 119.726 56.9065 119.845 56.8593C119.964 56.7884 120.083 56.7176 120.226 56.6704C120.345 56.6231 120.441 56.5287 120.512 56.4342C120.965 56.9301 121.608 57.2371 122.323 57.2371C122.824 57.2371 123.277 57.0954 123.682 56.8357C123.801 57.001 123.944 57.119 124.087 57.1663C124.277 57.2371 124.492 57.2607 124.706 57.2607H128.805C129.163 57.2607 129.449 57.2135 129.663 57.119C129.878 57.0246 130.045 56.8357 130.164 56.5995C130.259 56.8829 130.426 57.0718 130.688 57.1427C130.903 57.2135 131.165 57.2607 131.451 57.2607C131.474 57.2607 131.522 57.2607 131.57 57.2607H132.475C132.785 57.2607 133 57.2135 133.167 57.0954C133.333 56.9774 133.452 56.8357 133.548 56.6467C133.667 56.9065 133.834 57.0718 134.072 57.1663C134.191 57.2135 134.334 57.2371 134.477 57.2607C134.549 57.2607 134.62 57.2843 134.739 57.2843H135.812C136.026 57.2843 136.241 57.2607 136.431 57.1899C136.622 57.119 136.789 56.9537 136.932 56.7176L136.455 56.1036C136.408 56.2453 136.36 56.3398 136.265 56.4342M121.06 56.0564C120.727 55.7258 120.536 55.3007 120.536 54.8048C120.536 54.3089 120.727 53.8838 121.06 53.5532C121.394 53.2226 121.823 53.0337 122.323 53.0337C122.824 53.0337 123.253 53.2226 123.586 53.5532C123.92 53.8838 124.111 54.3089 124.111 54.8048C124.111 55.3007 123.92 55.7258 123.586 56.0564C123.253 56.387 122.824 56.5759 122.323 56.5759C121.823 56.5759 121.394 56.387 121.06 56.0564Z" fill="#028145"/>
<path d="M119.678 59.7875H118.463V57.3788C118.463 57.119 118.511 56.8829 118.606 56.6703C118.701 56.4814 118.82 56.3161 118.963 56.198C119.106 56.08 119.249 55.9855 119.392 55.9147C119.511 55.8438 119.631 55.7966 119.75 55.7258C119.75 55.7258 119.774 55.7258 119.797 55.7021C119.702 55.4188 119.631 55.1118 119.631 54.8048C119.631 53.3407 120.846 52.1363 122.324 52.1363C123.801 52.1363 125.016 53.3407 125.016 54.8048C125.016 55.3243 124.873 55.8202 124.588 56.2453C124.635 56.2453 124.683 56.2689 124.73 56.2689H128.543C128.758 56.2689 128.925 56.2689 129.044 56.2217C129.139 56.2217 129.187 56.1744 129.235 56.1272C129.282 56.08 129.306 56.0091 129.33 55.8911C129.33 55.773 129.354 55.6077 129.354 55.4188C129.354 55.0645 129.258 54.8284 129.092 54.6631C128.901 54.4978 128.591 54.4033 128.138 54.4033H126.16C125.922 54.4033 125.755 54.238 125.755 54.0019V53.5768C125.755 53.3879 125.827 53.2934 125.898 53.2462L128.496 50.2235C128.686 50.011 128.901 50.0346 129.044 50.1527L129.378 50.4124C129.497 50.5069 129.544 50.625 129.568 50.6958C129.568 50.7903 129.544 50.9083 129.473 50.9792L127.59 53.1754H128.353C128.686 53.1754 128.972 53.2226 129.258 53.317C129.544 53.4115 129.783 53.5532 129.997 53.7421C130.212 53.931 130.378 54.1908 130.474 54.4742C130.569 54.7575 130.641 55.0882 130.641 55.466V55.6549C130.641 55.9147 130.76 56.0327 130.831 56.1036C130.998 56.2217 131.213 56.2689 131.499 56.2689H132.38C132.523 56.2689 132.595 56.2689 132.619 56.2453L132.666 56.198C132.666 56.198 132.714 56.08 132.714 55.9855C132.714 55.8674 132.714 55.7258 132.714 55.5841V53.5768C132.714 53.3407 132.881 53.1754 133.119 53.1754H133.524C133.763 53.1754 133.929 53.3407 133.929 53.5768V55.6785C133.929 55.9383 134.048 56.0564 134.12 56.1036C134.287 56.2217 134.501 56.2689 134.787 56.2689H135.717C135.717 56.2689 135.812 56.2689 135.883 56.2453C135.931 56.2453 135.955 56.198 136.003 56.1508C136.003 56.1508 136.098 56.0091 136.122 55.9147L136.289 55.4188L137.218 56.5995L137.123 56.7648C136.932 57.0954 136.718 57.2843 136.455 57.3788C136.241 57.4496 136.003 57.4732 135.741 57.4732H134.668C134.549 57.4732 134.43 57.4732 134.334 57.4496C134.191 57.4496 134.048 57.4024 133.906 57.3552C133.739 57.3079 133.596 57.2135 133.453 57.0718C133.381 57.1426 133.334 57.1899 133.262 57.2607C133.048 57.4024 132.762 57.4732 132.404 57.4732H131.499C131.499 57.4732 131.403 57.4732 131.379 57.4732C131.07 57.4732 130.784 57.4024 130.545 57.3316C130.355 57.2843 130.212 57.1662 130.093 57.0482C129.997 57.1662 129.878 57.2371 129.735 57.3079C129.473 57.426 129.163 57.4732 128.758 57.4732H124.659C124.397 57.4732 124.159 57.426 123.944 57.3788C123.801 57.3316 123.682 57.2607 123.563 57.1426C122.61 57.6622 121.299 57.5205 120.465 56.7648C120.417 56.812 120.346 56.8356 120.274 56.8593C120.155 56.9065 120.036 56.9773 119.917 57.0482C119.821 57.0954 119.75 57.1662 119.702 57.2371C119.702 57.2607 119.631 57.3552 119.631 57.6149V59.7875H119.678ZM119.011 59.2207H119.106V57.6149C119.106 57.3079 119.178 57.0718 119.297 56.9065C119.416 56.7648 119.535 56.6467 119.702 56.5523C119.845 56.4814 119.964 56.4106 120.107 56.3633C120.179 56.3397 120.226 56.2925 120.274 56.2217L120.489 55.9383L120.727 56.198C121.418 56.9773 122.681 57.119 123.515 56.5523L123.753 56.387L123.92 56.6231C124.016 56.7412 124.087 56.812 124.182 56.8356C124.349 56.8829 124.516 56.9065 124.707 56.9065H128.806C129.115 56.9065 129.378 56.8593 129.544 56.7884C129.711 56.7176 129.83 56.5995 129.902 56.4106L130.116 55.9383C130.116 55.9383 130.093 55.7494 130.093 55.6549V55.466C130.093 55.1354 130.045 54.8756 129.973 54.6631C129.902 54.4506 129.783 54.2853 129.64 54.1436C129.497 54.0019 129.33 53.9074 129.115 53.8602C128.877 53.7893 128.639 53.7657 128.377 53.7657H126.399L128.949 50.7903L128.853 50.7194L126.351 53.624V53.8602H128.162C128.758 53.8602 129.211 54.0019 129.497 54.2616C129.783 54.5214 129.95 54.9229 129.95 55.4424C129.95 55.6785 129.95 55.8674 129.902 56.0091C129.878 56.2217 129.807 56.387 129.687 56.505C129.568 56.6467 129.401 56.7412 129.211 56.7884C129.044 56.8356 128.829 56.8593 128.567 56.8593H124.754C124.635 56.8593 124.516 56.8593 124.397 56.7884C124.278 56.7412 124.159 56.6703 124.039 56.5287L123.873 56.2925L124.016 56.1272C124.325 55.7494 124.492 55.3007 124.492 54.8048C124.492 53.6477 123.539 52.7031 122.371 52.7031C121.203 52.7031 120.25 53.6477 120.25 54.8048C120.25 55.1118 120.322 55.3951 120.441 55.6785L120.536 55.8674L120.393 56.0091C120.393 56.0091 120.203 56.1744 120.107 56.2217C119.988 56.2925 119.845 56.3634 119.702 56.4342C119.583 56.4814 119.488 56.5523 119.392 56.6467C119.297 56.7176 119.225 56.8356 119.178 56.9301C119.13 57.0482 119.083 57.2135 119.083 57.3788V59.2207H119.011ZM133.834 56.5523C133.906 56.694 134.001 56.7884 134.144 56.812C134.263 56.8356 134.382 56.8593 134.501 56.8829C134.573 56.8829 134.644 56.8829 134.716 56.8829H135.788C135.979 56.8829 136.146 56.8593 136.312 56.812C136.408 56.7884 136.479 56.7176 136.551 56.6231L136.455 56.4814C136.36 56.5995 136.241 56.694 136.098 56.7412C135.979 56.7884 135.86 56.812 135.741 56.812H134.811C134.406 56.812 134.072 56.7176 133.81 56.5523H133.834ZM130.45 56.505C130.521 56.6467 130.617 56.7648 130.784 56.812C130.974 56.8829 131.189 56.9065 131.475 56.9301H132.476C132.714 56.9301 132.881 56.8829 133 56.812C133.119 56.7176 133.214 56.6231 133.286 56.4578L133.477 56.08C133.477 56.08 133.405 55.8202 133.405 55.6785V53.7421H133.31V55.5841C133.31 55.7494 133.31 55.9147 133.31 56.0327C133.31 56.198 133.262 56.3397 133.214 56.4342C133.143 56.5759 133.024 56.694 132.881 56.7412C132.762 56.7884 132.619 56.8356 132.428 56.8356H131.618C131.141 56.8356 130.807 56.7412 130.545 56.5523C130.545 56.5523 130.521 56.5523 130.498 56.505H130.45ZM122.324 56.8593C121.775 56.8593 121.251 56.6467 120.87 56.2689C120.489 55.8674 120.274 55.3715 120.274 54.8284C120.274 54.2853 120.489 53.7657 120.87 53.3879C121.656 52.6086 123.015 52.6322 123.801 53.3879C124.182 53.7657 124.397 54.2853 124.397 54.8284C124.397 55.3715 124.182 55.8911 123.801 56.2689C123.42 56.6467 122.895 56.8593 122.347 56.8593H122.324ZM121.251 55.8438C121.823 56.4106 122.8 56.4106 123.372 55.8438C123.658 55.5605 123.801 55.1826 123.801 54.7812C123.801 54.3797 123.634 54.0019 123.372 53.7185C122.824 53.1754 121.823 53.1517 121.251 53.7185C120.965 54.0019 120.822 54.3797 120.822 54.7812C120.822 55.1826 120.989 55.5605 121.251 55.8438Z" fill="#028145"/>
<path d="M107.429 52.3961C106.095 52.3961 105.023 53.4588 105.023 54.7812C105.023 55.4424 105.308 56.0564 105.737 56.4814C104.641 56.4342 103.402 56.387 103.283 56.3161C103.068 56.1745 102.973 55.9619 102.973 55.6549V53.5532C102.973 53.5532 102.925 53.4351 102.854 53.4351H102.449C102.449 53.4351 102.33 53.4824 102.33 53.5532V55.5605C102.33 55.7258 102.33 55.8675 102.33 55.9855C102.33 56.1036 102.282 56.2217 102.258 56.2925C102.21 56.387 102.163 56.4342 102.067 56.4814C101.972 56.5287 101.853 56.5523 101.71 56.5523H100.828C100.471 56.5523 100.209 56.4814 99.9941 56.3161C99.7796 56.1745 99.6843 55.9383 99.6843 55.6549V55.466C99.6843 55.1118 99.6367 54.8048 99.5413 54.5686C99.446 54.3089 99.303 54.12 99.1362 53.9547C98.9694 53.7894 98.7549 53.6713 98.4928 53.6004C98.2544 53.5296 97.9685 53.4824 97.6587 53.4824H96.3003L98.5881 50.8139C98.5881 50.8139 98.6119 50.6958 98.5404 50.6486L98.2068 50.3888C98.2068 50.3888 98.1115 50.3652 98.04 50.4125L95.4185 53.4824C95.4185 53.4824 95.3709 53.5296 95.3709 53.6004V54.0255C95.3709 54.0255 95.4185 54.1436 95.49 54.1436H97.468C97.9923 54.1436 98.3736 54.2617 98.6119 54.4742C98.8502 54.6867 98.9694 55.0173 98.9694 55.4424C98.9694 55.6549 98.9694 55.8202 98.9217 55.9619C98.9217 56.1272 98.8502 56.2453 98.7787 56.3161C98.7072 56.4106 98.5881 56.4814 98.4451 56.5051C98.3021 56.5523 98.1115 56.5759 97.8731 56.5759H94.0602C94.0602 56.5759 93.8933 56.5759 93.798 56.5287C93.7027 56.5051 93.6312 56.4342 93.5597 56.3634V56.3161C93.8695 55.9147 94.0602 55.3952 94.0602 54.8284C94.0602 53.506 92.9877 52.4433 91.6532 52.4433C90.3187 52.4433 89.2462 53.506 89.2462 54.8284C89.2462 55.1826 89.3177 55.5132 89.4607 55.8202C89.3892 55.8911 89.3177 55.9383 89.2224 55.9855C89.1033 56.0564 88.9841 56.1272 88.8411 56.1981C88.6981 56.2689 88.579 56.3398 88.4598 56.4578C88.3407 56.5523 88.2453 56.694 88.1738 56.8357C88.1024 56.9773 88.0547 57.1899 88.0547 57.426V59.5514H88.6981V57.6622C88.6981 57.4024 88.7458 57.2371 88.8173 57.119C88.8888 57.001 89.0079 56.9065 89.1271 56.8593C89.2462 56.7884 89.3654 56.7176 89.5084 56.6704C89.6275 56.6231 89.7229 56.5287 89.7944 56.4342C90.2472 56.9301 90.8906 57.2371 91.6055 57.2371C92.106 57.2371 92.5588 57.0954 92.9401 56.8357C93.0592 57.001 93.2022 57.119 93.3452 57.1663C93.5359 57.2371 93.7503 57.2607 93.9648 57.2607H98.0638C98.4213 57.2607 98.7072 57.2135 98.9217 57.119C99.1362 57.0246 99.303 56.8357 99.4222 56.5995C99.5175 56.8829 99.6843 57.0718 99.9465 57.1427C100.185 57.2135 100.423 57.2607 100.709 57.2607C100.733 57.2607 100.781 57.2607 100.828 57.2607H101.734C102.044 57.2607 102.258 57.2135 102.425 57.0954C102.592 56.9774 102.711 56.8357 102.806 56.6467C102.925 56.9065 103.092 57.0718 103.33 57.1663C103.569 57.2371 107.263 57.2843 107.596 57.2843C107.763 57.2843 107.882 57.2607 107.954 57.2135C109.026 56.9774 109.836 56.0328 109.836 54.8756C109.836 53.5532 108.764 52.4906 107.429 52.4906M90.3663 56.0564C90.0327 55.7258 89.842 55.3007 89.842 54.8048C89.842 54.3089 90.0327 53.8838 90.3663 53.5532C90.7 53.2226 91.1289 53.0337 91.6294 53.0337C92.1298 53.0337 92.5588 53.2226 92.8924 53.5532C93.2261 53.8838 93.4167 54.3089 93.4167 54.8048C93.4167 55.3007 93.2261 55.7258 92.8924 56.0564C92.5588 56.387 92.1298 56.5759 91.6294 56.5759C91.1289 56.5759 90.7 56.387 90.3663 56.0564ZM108.693 56.0564C108.43 56.3161 108.073 56.5051 107.668 56.5523C107.668 56.5523 107.62 56.5523 107.596 56.5523H107.525C107.525 56.5523 107.334 56.5523 107.143 56.5523C106.762 56.4814 106.429 56.3161 106.166 56.0564C105.833 55.7258 105.642 55.3007 105.642 54.8048C105.642 54.3089 105.833 53.8838 106.166 53.5532C106.5 53.2226 106.929 53.0337 107.429 53.0337C107.93 53.0337 108.359 53.2226 108.693 53.5532C109.002 53.8838 109.217 54.3089 109.217 54.8048C109.217 55.3007 109.026 55.7258 108.693 56.0564Z" fill="#028145"/>
<path d="M88.9839 59.7875H87.7686V57.3788C87.7686 57.0955 87.8162 56.8593 87.9115 56.6704C88.0069 56.4815 88.126 56.3398 88.269 56.1981C88.3882 56.08 88.555 55.9856 88.698 55.9147C88.8171 55.8439 88.9363 55.7966 89.0554 55.7258C89.0554 55.7258 89.0793 55.7258 89.1031 55.7022C89.0078 55.4188 88.9363 55.1118 88.9363 54.8048C88.9363 53.3407 90.1517 52.1364 91.6292 52.1364C93.1067 52.1364 94.3221 53.3407 94.3221 54.8048C94.3221 55.3244 94.1791 55.8203 93.8932 56.2453C93.9408 56.2453 93.9885 56.2453 94.0362 56.2453H97.8492C98.0636 56.2453 98.2304 56.2453 98.3496 56.1981C98.4449 56.1981 98.4926 56.1509 98.5403 56.1036C98.5879 56.0564 98.6117 55.962 98.6356 55.8675C98.6356 55.7258 98.6594 55.5841 98.6594 55.3952C98.6594 55.041 98.5641 54.8048 98.3973 54.6395C98.2066 54.4742 97.8968 54.4034 97.444 54.4034H95.466C95.2277 54.4034 95.0609 54.2381 95.0609 54.0019V53.5769C95.0609 53.4116 95.1086 53.3171 95.1801 53.2463L97.7777 50.2C97.9683 49.9874 98.1828 50.011 98.3258 50.1291L98.6594 50.3889C98.7786 50.4833 98.8262 50.6014 98.8501 50.6723C98.8501 50.7667 98.8501 50.8848 98.7547 50.9556L96.8721 53.1518H97.6347C97.9683 53.1518 98.2543 53.199 98.5403 53.2935C98.8262 53.3879 99.0645 53.5296 99.279 53.7186C99.4935 53.9075 99.6365 54.1672 99.7556 54.4506C99.851 54.734 99.9225 55.0646 99.9225 55.4424V55.6313C99.9225 55.8911 100.018 56.0092 100.113 56.0564C100.28 56.1745 100.494 56.2217 100.78 56.2217H101.662C101.805 56.2217 101.877 56.2217 101.9 56.1981L101.948 56.1509C101.948 56.1509 101.996 56.0328 101.996 55.9383C101.996 55.8203 101.996 55.6786 101.996 55.5369V53.5296C101.996 53.2935 102.163 53.1282 102.401 53.1282H102.806C103.044 53.1282 103.211 53.2935 103.211 53.5296V55.6313C103.211 55.8911 103.306 56.0092 103.402 56.0564C103.402 56.0564 103.64 56.1036 105.094 56.1509C104.832 55.7258 104.689 55.2535 104.689 54.7576C104.689 53.2935 105.904 52.0891 107.382 52.0891C108.859 52.0891 110.075 53.2935 110.075 54.7576C110.075 55.9856 109.24 57.0482 108.025 57.3552C107.906 57.4261 107.763 57.4497 107.548 57.4497C107.501 57.4497 103.521 57.4497 103.211 57.3316C103.044 57.2844 102.878 57.1899 102.758 57.0482C102.687 57.1191 102.639 57.1663 102.568 57.2135C102.353 57.3552 102.067 57.4261 101.71 57.4261H100.804C100.804 57.4261 100.709 57.4261 100.685 57.4261C100.375 57.4261 100.089 57.3552 99.851 57.2844C99.6603 57.2371 99.5173 57.1191 99.3982 57.001C99.3029 57.0955 99.1599 57.1899 99.0407 57.2608C98.7786 57.3788 98.4688 57.4261 98.0636 57.4261H93.9647C93.7025 57.4261 93.4642 57.3788 93.2497 57.3316C93.1067 57.2844 92.9876 57.2135 92.8684 57.0955C91.9152 57.615 90.6045 57.4733 89.7704 56.7176C89.7227 56.7649 89.6512 56.7885 89.5797 56.8121C89.4606 56.8593 89.3414 56.9302 89.2223 57.001C89.1269 57.0482 89.0554 57.1191 89.0078 57.1899C89.0078 57.2135 88.9363 57.308 88.9363 57.5678V59.7403L88.9839 59.7875ZM88.3167 59.2208H88.412V57.615C88.412 57.308 88.4835 57.0718 88.6026 56.9065C88.7218 56.7649 88.841 56.6468 89.0078 56.5523C89.1508 56.4815 89.2699 56.4106 89.4129 56.3634C89.4844 56.3398 89.5321 56.2926 89.5797 56.2217L89.7942 55.9383L90.0325 56.1981C90.7236 56.9774 91.9867 57.1191 92.8208 56.5523L93.0591 56.387L93.2259 56.6232C93.2259 56.6232 93.3927 56.8121 93.488 56.8357C93.6549 56.8829 93.8217 56.9065 94.0123 56.9065H98.1113C98.4211 56.9065 98.6832 56.8593 98.8501 56.7885C99.0169 56.7176 99.136 56.5996 99.2075 56.4106L99.422 55.9383C99.422 55.9383 99.3982 55.7494 99.3982 55.655V55.466C99.3982 55.1354 99.3505 54.8757 99.279 54.6631C99.2075 54.4506 99.0884 54.2853 98.9454 54.1436C98.8024 54.0019 98.6356 53.9075 98.4211 53.8602C98.1828 53.7894 97.9445 53.7658 97.6823 53.7658H95.7043L98.2543 50.7903L98.159 50.7195L95.6567 53.6241V53.8602H97.4679C98.0636 53.8602 98.4926 53.9783 98.8024 54.2617C99.0884 54.5215 99.2552 54.9229 99.2552 55.4424C99.2552 55.655 99.2552 55.8675 99.2075 56.0092C99.1837 56.1981 99.1122 56.387 98.993 56.5051C98.8977 56.6468 98.7309 56.7412 98.5164 56.7885C98.3496 56.8357 98.1351 56.8593 97.873 56.8593H94.06C93.9408 56.8593 93.8217 56.8593 93.7025 56.7885C93.5834 56.7412 93.4642 56.6704 93.3451 56.5523L93.2974 56.4579L93.2021 56.2926L93.3212 56.1509C93.631 55.773 93.774 55.3244 93.774 54.8284C93.774 53.6713 92.8208 52.7267 91.653 52.7267C90.4853 52.7267 89.5321 53.6713 89.5321 54.8284C89.5321 55.1354 89.6036 55.4188 89.7227 55.7022L89.818 55.8911L89.6751 56.0328C89.6751 56.0328 89.4844 56.1981 89.3891 56.2453C89.2699 56.3162 89.1269 56.387 88.9839 56.4579C88.8648 56.5051 88.7695 56.5759 88.6741 56.6704C88.5788 56.7412 88.5073 56.8357 88.4597 56.9538C88.412 57.0718 88.3643 57.2135 88.3643 57.4025V59.2444L88.3167 59.2208ZM103.14 56.5523C103.235 56.7412 103.354 56.7885 103.449 56.8121C103.735 56.8593 107 56.9065 107.62 56.9065C107.787 56.9065 107.834 56.9065 107.834 56.9065L107.93 56.8593C108.907 56.6468 109.574 55.7967 109.574 54.8048C109.574 53.6477 108.621 52.7031 107.453 52.7031C106.285 52.7031 105.332 53.6477 105.332 54.8048C105.332 55.3716 105.547 55.9147 105.976 56.3162L106.5 56.8121H105.761C103.378 56.7176 103.259 56.6232 103.164 56.5759L103.14 56.5523ZM99.7556 56.5051C99.8271 56.6468 99.9225 56.7649 100.089 56.8121C100.28 56.8829 100.494 56.9065 100.78 56.9302H101.781C102.02 56.9302 102.186 56.8829 102.306 56.8121C102.425 56.7176 102.52 56.5995 102.592 56.4579L102.782 56.08C102.782 56.08 102.711 55.8203 102.711 55.655V53.7186H102.615V55.5605C102.615 55.7258 102.615 55.8911 102.615 56.0092C102.615 56.1745 102.568 56.2926 102.52 56.4106C102.449 56.5523 102.353 56.6704 102.186 56.7176C102.067 56.7649 101.924 56.8121 101.71 56.8121H100.828C100.423 56.8121 100.089 56.7176 99.8271 56.5287C99.8271 56.5287 99.8033 56.5287 99.7795 56.4815L99.7556 56.5051ZM91.6292 56.8593C91.0811 56.8593 90.5568 56.6468 90.1517 56.2689C89.7704 55.8675 89.5559 55.3716 89.5559 54.8284C89.5559 54.2853 89.7704 53.7658 90.1517 53.3879C90.9381 52.6087 92.2965 52.6087 93.0829 53.3879C93.4642 53.7658 93.6787 54.2853 93.6787 54.8284C93.6787 55.3716 93.4642 55.8911 93.0829 56.2689C92.7016 56.6468 92.1773 56.8593 91.6292 56.8593ZM90.5568 55.8439C91.1288 56.387 92.1058 56.4106 92.6778 55.8439C92.9638 55.5605 93.1067 55.1827 93.1067 54.7812C93.1067 54.3798 92.9399 54.0019 92.6778 53.7186C92.1058 53.1754 91.1288 53.1518 90.5568 53.7186C90.2708 54.0019 90.1278 54.3798 90.1278 54.7812C90.1278 55.1827 90.2947 55.5605 90.5568 55.8439ZM107.691 56.8357H107.143C106.667 56.7649 106.285 56.5523 105.976 56.2453C105.594 55.8439 105.38 55.348 105.38 54.8048C105.38 54.2617 105.594 53.7422 105.976 53.3643C106.762 52.585 108.12 52.585 108.907 53.3643C109.288 53.7658 109.503 54.2617 109.503 54.8048C109.503 55.348 109.288 55.8675 108.907 56.2453C108.573 56.5759 108.168 56.7649 107.715 56.8357H107.691ZM107.358 56.2689H107.548C107.548 56.2689 107.691 56.2689 107.715 56.2689C107.977 56.2217 108.263 56.08 108.502 55.8439C108.788 55.5605 108.931 55.1827 108.931 54.7812C108.931 54.3798 108.764 54.0019 108.502 53.7186C107.93 53.1754 106.953 53.1518 106.381 53.7186C106.095 54.0019 105.952 54.3798 105.952 54.7812C105.952 55.1827 106.119 55.5605 106.381 55.8439C106.595 56.0564 106.881 56.1981 107.191 56.2689H107.334H107.358Z" fill="#028145"/>
<path d="M133.262 52.6086C133.572 52.6086 133.834 52.3488 133.834 52.0419C133.834 51.7349 133.572 51.4751 133.262 51.4751C132.953 51.4751 132.69 51.7349 132.69 52.0419C132.69 52.3488 132.953 52.6086 133.262 52.6086Z" fill="#028145"/>
<path d="M133.262 52.892C132.786 52.892 132.404 52.5142 132.404 52.0419C132.404 51.5696 132.786 51.1918 133.262 51.1918C133.739 51.1918 134.12 51.5696 134.12 52.0419C134.12 52.5142 133.739 52.892 133.262 52.892ZM133.262 51.7349C133.095 51.7349 132.976 51.853 132.976 52.0183C132.976 52.1836 133.119 52.3017 133.262 52.3017C133.405 52.3017 133.548 52.16 133.548 52.0183C133.548 51.8766 133.405 51.7349 133.262 51.7349Z" fill="#028145"/>
<path d="M107.429 51.7348C107.739 51.7348 108.001 51.4751 108.001 51.1681C108.001 50.8611 107.739 50.6013 107.429 50.6013C107.12 50.6013 106.857 50.8611 106.857 51.1681C106.857 51.4751 107.12 51.7348 107.429 51.7348Z" fill="#028145"/>
<path d="M107.429 52.0183C106.953 52.0183 106.571 51.6404 106.571 51.1681C106.571 50.6958 106.953 50.318 107.429 50.318C107.906 50.318 108.287 50.6958 108.287 51.1681C108.287 51.6404 107.906 52.0183 107.429 52.0183ZM107.429 50.8611C107.262 50.8611 107.143 50.9792 107.143 51.1445C107.143 51.3098 107.262 51.4279 107.429 51.4279C107.596 51.4279 107.715 51.2862 107.715 51.1445C107.715 51.0028 107.572 50.8611 107.429 50.8611Z" fill="#028145"/>
<path d="M103.806 57.9691C103.497 57.9691 103.234 58.2289 103.234 58.5359C103.234 58.8429 103.497 59.1026 103.806 59.1026C104.116 59.1026 104.378 58.8429 104.378 58.5359C104.378 58.2289 104.116 57.9691 103.806 57.9691Z" fill="#028145"/>
<path d="M103.807 59.4096C103.331 59.4096 102.949 59.0318 102.949 58.5595C102.949 58.0872 103.331 57.7094 103.807 57.7094C104.284 57.7094 104.665 58.0872 104.665 58.5595C104.665 59.0318 104.284 59.4096 103.807 59.4096ZM103.807 58.2525C103.64 58.2525 103.521 58.3942 103.521 58.5359C103.521 58.6776 103.664 58.8192 103.807 58.8192C103.95 58.8192 104.093 58.7012 104.093 58.5359C104.093 58.3706 103.974 58.2525 103.807 58.2525Z" fill="#028145"/>
<path d="M101.852 57.9691C101.542 57.9691 101.28 58.2289 101.28 58.5359C101.28 58.8429 101.542 59.1026 101.852 59.1026C102.162 59.1026 102.424 58.8429 102.424 58.5359C102.424 58.2289 102.162 57.9691 101.852 57.9691Z" fill="#028145"/>
<path d="M101.853 59.4096C101.376 59.4096 100.995 59.0318 100.995 58.5595C100.995 58.0872 101.376 57.7094 101.853 57.7094C102.33 57.7094 102.711 58.0872 102.711 58.5595C102.711 59.0318 102.33 59.4096 101.853 59.4096ZM101.853 58.2525C101.686 58.2525 101.567 58.3942 101.567 58.5359C101.567 58.6776 101.71 58.8192 101.853 58.8192C101.996 58.8192 102.139 58.7012 102.139 58.5359C102.139 58.3706 101.996 58.2525 101.853 58.2525Z" fill="#028145"/>
</g>
</g>
<defs>
<clipPath id="clip0_25719_8994">
<rect width="152.113" height="60" fill="white"/>
</clipPath>
<clipPath id="clip1_25719_8994">
<rect width="75.2113" height="59.1549" fill="white" transform="translate(76.9014 0.845093)"/>
</clipPath>
</defs>
</svg>
